<?xml version="1.0" encoding="UTF-8" standalone="no"?>
<svg
   xmlns:dc="http://purl.org/dc/elements/1.1/"
   xmlns:cc="http://creativecommons.org/ns#"
   xmlns:rdf="http://www.w3.org/1999/02/22-rdf-syntax-ns#"
   xmlns:svg="http://www.w3.org/2000/svg"
   xmlns="http://www.w3.org/2000/svg"
   xmlns:sodipodi="http://sodipodi.sourceforge.net/DTD/sodipodi-0.dtd"
   xmlns:inkscape="http://www.inkscape.org/namespaces/inkscape"
   width="700"
   height="700"
   version="1.1"
   id="svg4"
   sodipodi:docname="meliuz-logo.svg"
   inkscape:export-filename="G:\Users\suitedoalex\sites\meliuz-logo-0.png"
   inkscape:export-xdpi="561.73712"
   inkscape:export-ydpi="561.73712"
   inkscape:version="0.92.4 (5da689c313, 2019-01-14)">
  <metadata
     id="metadata10">
    <rdf:RDF>
      <cc:Work
         rdf:about="">
        <dc:format>image/svg+xml</dc:format>
        <dc:type
           rdf:resource="http://purl.org/dc/dcmitype/StillImage" />
        <dc:title></dc:title>
      </cc:Work>
    </rdf:RDF>
  </metadata>
  <defs
     id="defs8" />
  <sodipodi:namedview
     pagecolor="#ffffff"
     bordercolor="#666666"
     borderopacity="1"
     objecttolerance="10"
     gridtolerance="10"
     guidetolerance="10"
     inkscape:pageopacity="0"
     inkscape:pageshadow="2"
     inkscape:window-width="1600"
     inkscape:window-height="837"
     id="namedview6"
     showgrid="false"
     inkscape:zoom="0.45380435"
     inkscape:cx="138.68683"
     inkscape:cy="-9.2268523"
     inkscape:window-x="-8"
     inkscape:window-y="-8"
     inkscape:window-maximized="1"
     inkscape:current-layer="svg4" />
  <path
     d="m 574.39345,407.37644 c 17.85398,0 26.78097,4.16592 42.25441,10.11725 8.33186,2.97567 0,-8.33186 -5.95132,-13.68805 -7.14159,-4.76106 -12.49778,-8.33186 -26.18583,-10.71238 -13.68805,-2.38054 -29.75663,-3.5708 -45.23008,1.19026 11.90266,-15.47345 22.01991,-23.21017 41.06415,-36.30309 l 13.68805,-8.33185 c 7.14159,-4.76106 10.11725,-9.52212 6.54645,-21.42477 -10.11725,-2.38053 -20.2345,-3.5708 -30.35176,-4.16593 l 2.38053,-16.66371 c 0.59514,-2.97566 -7.73671,-3.5708 -10.71238,-1.19026 -2.97567,2.38053 -4.16593,9.52212 -4.76106,17.85397 -13.68805,0 -26.78096,1.7854 -39.27874,4.16593 -7.1416,1.19027 -5.95134,5.95132 -5.95134,9.52212 0,3.57079 4.76107,7.73672 9.52213,7.14159 23.8053,-5.95132 41.06414,-4.76106 53.56193,-2.97566 -11.30752,7.14159 -24.99557,16.66371 -33.32743,23.8053 -12.49778,10.71239 -19.04424,17.85398 -26.18583,30.35176 -1.19026,1.78539 -4.16592,7.14159 -2.97566,11.90265 1.19027,4.16593 3.57079,7.14159 5.95132,6.54645 4.16593,0 20.82964,-5.35619 40.46901,-7.14158 l -0.59512,19.63937 c 0,3.5708 8.92698,3.5708 11.90264,0 3.5708,-2.97566 4.16593,-10.71238 4.16593,-19.63937 z m -75.58183,-79.74777 c -1.19026,-1.19025 -5.95132,-2.38052 -8.92699,-2.97566 -4.76106,0 -8.33186,1.78541 -8.92698,5.95133 -1.7854,13.68804 -2.38054,33.92255 -4.76107,50.58626 -2.38052,17.85398 -13.09291,23.8053 -20.2345,22.61504 -11.90265,-2.38053 -14.87832,-15.47345 -14.28318,-35.70795 0.59513,-21.42477 7.14159,-42.25441 3.57079,-43.44468 -15.47344,-2.97566 -26.18583,17.25885 -24.99556,53.56193 0,19.63937 5.95132,37.49335 24.99556,44.63494 17.85398,6.54646 35.70796,-8.92698 37.49335,-14.87831 l 1.7854,15.47345 c 1.7854,2.97566 8.92699,0 11.90265,-1.78541 3.5708,-1.19025 5.95132,-3.57079 5.35619,-7.73671 -2.38053,-20.23451 -2.38053,-31.54203 -2.38053,-52.37167 V 327.62867 Z M 388.11697,310.36983 a 11.902651,11.902651 0 0 0 7.14159,7.73673 c 2.97566,1.19026 5.3562,1.19026 7.73673,0.59513 l 4.76105,-1.7854 1.7854,-1.19026 c 4.16593,-1.19027 7.14159,-6.54646 5.95133,-11.30752 -1.19027,-5.35619 -7.1416,-7.73673 -16.06858,-5.35619 -8.33186,2.38053 -12.49778,5.95132 -11.90266,11.90264 z m -4.76106,108.31412 c 1.19026,4.76107 6.54646,7.14159 13.09292,5.95133 5.95132,0 10.71239,-2.38053 10.71239,-5.95133 l -2.38054,-17.25884 c -3.5708,-22.0199 -3.5708,-42.25441 0,-63.08405 1.19027,-4.16593 -2.97566,-7.73672 -7.73672,-8.92698 -5.95133,-1.19027 -10.71238,1.78539 -11.90265,7.73671 -3.5708,17.85398 -5.35619,51.77654 -1.7854,81.53316 z M 267.9002,318.10656 a 345.17686,345.17686 0 0 1 8.92698,-5.35619 l 14.87832,-8.33186 c 7.14159,-4.76106 5.35619,-12.49778 -3.57079,-14.87831 -7.73673,-1.7854 -36.89822,20.82963 -35.70795,27.37609 0,6.54646 6.54645,6.54646 15.47344,1.19027 z m 103.55306,3.57079 c 9.52212,-33.32742 5.95132,-79.74775 -11.90265,-84.50882 -17.85398,-4.16593 -36.89822,30.94689 -40.46901,61.89379 a 208.29639,208.29639 0 0 0 2.38053,71.4159 c 0,2.97567 1.19026,4.16592 2.38052,10.11725 -5.95132,11.90265 -24.99556,27.3761 -42.84954,27.3761 -15.47344,0 -23.8053,-11.30752 -25.59069,-23.80531 h 11.90264 c 7.1416,-0.59512 13.68805,-1.78539 20.23451,-4.76105 13.68805,-6.54646 21.42478,-20.23451 17.85398,-32.13716 -3.5708,-10.71238 -10.71239,-17.85397 -23.8053,-20.82963 a 44.039807,44.039807 0 0 0 -49.396,33.32742 c -5.95133,24.40042 5.95132,55.34732 26.78096,63.67918 17.25885,7.14159 33.32743,4.76105 47.61061,-4.16593 a 71.415903,71.415903 0 0 0 22.61503,-22.61504 c 10.11726,20.23451 22.61504,41.65927 47.61061,55.94246 35.70794,20.2345 78.55748,8.92698 98.19686,-13.09292 1.7854,-1.7854 1.19026,-4.16593 -1.19026,-4.76106 l -4.76107,1.19027 c -1.78539,0 -42.84954,20.2345 -80.93802,5.35619 -20.23451,-8.33185 -39.27875,-35.70795 -44.63494,-56.53759 14.87831,-21.42477 19.63938,-34.51769 27.97123,-63.08405 z m -92.84067,42.25441 a 37.493349,37.493349 0 0 1 -25.5907,7.73672 c 0,-6.54645 0.59513,-11.90264 1.78539,-15.47344 2.97567,-13.09291 13.09292,-19.63937 23.80531,-16.06858 9.52212,3.57079 10.11725,15.47345 0,23.8053 z m 63.67918,-62.48891 c 4.16593,-18.44911 10.71238,-32.13716 14.28318,-32.73229 2.97566,0 4.76105,4.16593 4.76105,11.90264 0,8.33186 -1.19025,19.63938 -4.16592,32.13717 a 190.44241,190.44241 0 0 1 -17.85397,53.56192 c -4.76107,-21.42477 -1.78541,-42.84954 2.97566,-65.46458 z M 154.82502,409.75697 c 5.95133,-2.38053 7.14159,-8.33186 7.14159,-13.68805 1.7854,-21.42478 17.85397,-65.46458 33.92255,-83.31855 0,-1.78541 -8.92699,45.8252 -5.95132,72.01103 4.16593,26.18583 15.47345,59.51325 59.51325,67.24997 10.11726,1.78541 22.0199,-1.78539 22.61504,-4.16592 0.59513,-2.97567 -5.95132,-2.97567 -14.28318,-5.3562 -23.80531,-6.54645 -36.89822,-23.8053 -43.44468,-48.20573 -7.14159,-24.99556 -2.38053,-70.22564 2.97566,-93.43581 0.59514,-4.76105 4.16593,-9.52212 5.95133,-14.87831 0.59513,-2.97566 -0.59513,-5.95133 -4.16592,-5.95133 -2.38054,-1.19026 -5.95134,-0.59512 -9.52213,0 -7.14159,1.7854 -19.63937,9.52213 -30.94689,24.99557 a 285.66361,285.66361 0 0 0 -26.18583,52.37166 421.35383,421.35383 0 0 1 -11.90265,-78.55749 c 1.19026,-11.90265 3.5708,-11.30752 4.16593,-17.25884 0.59513,-8.92699 -1.19027,-14.87832 -8.92699,-16.06858 -7.14159,-0.59513 -13.68805,3.5708 -17.85398,10.11725 -4.76106,5.95133 -15.47344,27.3761 -24.995563,73.79644 -9.522122,46.42033 -13.092916,82.72342 -13.092916,92.24553 0,10.11726 2.975662,15.47346 10.712385,16.06858 8.331856,0.59513 14.878314,-4.16592 14.878314,-11.90265 a 483.24761,483.24761 0 0 1 16.06858,-132.71455 380.88482,380.88482 0 0 0 20.2345,109.50439 c 2.38054,6.54645 7.14159,10.11725 13.68805,7.73672 z"
     id="path2"
     inkscape:connector-curvature="0"
     style="fill:#fff;fill-rule:evenodd;stroke-width:5.95132542"
     inkscape:export-filename="G:\Users\suitedoalex\sites\meliuz-logo-4.png"
     inkscape:export-xdpi="71.06855"
     inkscape:export-ydpi="71.06855" />
</svg>
